<?xml version="1.0" encoding="UTF-8"?>
<svg version="1.1" viewBox="0 0 2048 2048" width="750" height="750" xmlns="http://www.w3.org/2000/svg">
<path transform="translate(1022,463)" d="m0 0 5 1 17 10 15 9 29 17 51 30 28 16 27 16 25 14 23 13 18 10 19 11 20 12 23 13 24 14 28 16 24 14 23 13 48 28 26 15 14 9 1 1v484l-1 75-9 6-25 14-24 14-18 10-46 26-27 16-22 13-25 15-27 16-26 15-26 14-21 12-26 15-29 17-25 14-48 28-28 17-24 14-8 4-6-1-18-10-27-16-52-30-21-12-26-15-23-14-18-11-26-15-22-12-48-28-28-16-24-14-22-13-26-15-28-16-24-14-26-15-19-11-3-3-1-5v-498l1-54 4-5 13-8 24-14 32-18 25-14 44-26 52-30 21-12 15-9 23-13 29-16 27-16 25-14 24-14 25-15 28-16 29-17 19-11 20-12zm134 172-54 9-70 13-151 28-114 22-13 4-7 19-13 36-17 49-15 43-18 52-17 48-12 34-15 43-13 37-8 23-1 7 11 12 9 11 13 15 9 11 13 15 12 14 9 10 9 11 11 12 9 11 9 10 9 11 9 10 9 11 9 10 9 11 9 10 9 11 24 28 7 8 36 42 10 11 7 8 8 9 9-1 44-8 62-12 81-15 103-19 66-12 36-8 6-3 7-18 14-41 13-37 12-36 15-43 23-64 12-33 15-42 14-38 9-27 2-10-4-7-7-7-7-8-14-15-7-8-9-10-12-14-9-10-9-11-12-14-9-11-9-10-9-11-12-14-11-13-24-28-10-11-9-11-9-10-9-11-12-13-7-8-11-13-12-14-9-11-12-13-5-6z" fill="#5A585A"/>
<path transform="translate(1276,609)" d="m0 0 11 6 26 15 23 13 19 11 24 14 28 16 26 15 24 14 26 15 22 13 5 4v484l-1 75-9 6-25 14-24 14-18 10-46 26-27 16-22 13-25 15-27 16-26 15-26 14-21 12-26 15-29 17-25 14-48 28-28 17-24 14-6 2 1-3-10-13-12-16-2-4-4-2-9-13-5-3-3-6-5-5-9-10-7-7-7-8-12-14-10-13-9-10-7-8-9-10-7-8-1-3h-2l-6-8v-2l-4-2 25-5 42-8 53-10 80-15 158-29 42-9 5-2 7-18 14-41 13-37 12-36 15-43 23-64 12-33 15-42 14-38 9-27 2-10-4-7-7-7-7-8-14-15-7-8-9-10-12-14-9-10-9-11-12-14-9-11-9-10-9-11-12-14-11-13-24-28-10-11-9-11-9-10-9-11-12-13-7-8-11-13-12-14-9-11-12-13-3-5 13-3 29-5 51-11 19-4 2-2z" fill="#5A585A"/>
<path transform="translate(539,1008)" d="m0 0 3 2 3 5 14 15 7 8 9 10 7 8 12 14 22 26 3 6 11 12 9 11 13 15 9 11 13 15 12 14 9 10 9 11 11 12 9 11 9 10 9 11 9 10 9 11 9 10 9 11 9 10 9 11 24 28 7 8 36 42 10 11 7 8 8 9 4 2 6 8v2h2l7 8 8 10 9 9 9 11 10 12 8 10 11 12 7 8 8 8 3 4v2l4 2 4 7 4 2 10 14 5 5 14 18 6 8 2 4-4 4-6-1-18-10-27-16-52-30-21-12-26-15-23-14-18-11-26-15-22-12-48-28-28-16-24-14-22-13-26-15-28-16-24-14-26-15-19-11-3-3-1-5 1-277z" fill="#5A585A"/>
<path transform="translate(752,711)" d="m0 0h2l-3 10-11 31-13 37-34 98-15 43-11 30-10 29-16 46-13 37-8 23-2 6-2-4-9-10-9-11-13-15-10-11-9-11-7-7-7-8-9-10-3-5-1 12h-1l-1-181v-40l1-54 2 3v2l40-6 30-6 9-4 16-1 12-4h3v-2l3-1 2 2 24-3 32-6 27-5z" fill="#5A585A"/>
<path transform="translate(1276,609)" d="m0 0 11 6 26 15 23 13 19 11 24 14 28 16 26 15 24 14 26 15 20 12-2 1-3 11-17 48-6 18-13 37-19 53-9 25-3 7-3 4-10-11-7-8-14-15-7-8-9-10-12-14-9-10-9-11-12-14-9-11-9-10-9-11-12-14-11-13-24-28-10-11-9-11-9-10-9-11-12-13-7-8-11-13-12-14-9-11-12-13-3-5 13-3 29-5 51-11 19-4 2-2z" fill="#5A585A"/>
<path transform="translate(1291,1337)" d="m0 0 2 1-5 11-5 16-16 43-9 28-3 6-1 7h2v2l-22 12-21 12-26 15-29 17-25 14-48 28-28 17-24 14-6 2 1-3-10-13-12-16-2-4-4-2-9-13-5-3-3-6-5-5-9-10-7-7-7-8-12-14-10-13-9-10-7-8-9-10-7-8-1-3h-2l-6-8v-2l-4-2 25-5 42-8 53-10 80-15 158-29 42-9z" fill="#5A585A"/>
<path transform="translate(539,1008)" d="m0 0 3 2 3 5 14 15 7 8 9 10 7 8 12 14 22 26 3 6-1 6-4 11-9 25-15 43-13 36-14 40-4 15-6 14-5 13-2 2-5-1-3-3-1-5 1-277z" fill="#39393A"/>
<path transform="translate(1025,466)" d="m0 0 7 1 22 13 27 16 58 34 28 16 27 16 25 14 23 13 18 10 16 9 1 4-6 3-16 3-51 11-40 7-4-1-5-3-7-8-12-14-11-14-8-9v-2h-2l-9-11-10-11-9-11-2-4h-2l-7-9-13-15-11-12-6-8-11-13-12-15-2-7z" fill="#39393A"/>
<path transform="translate(877,1414)" d="m0 0h11l4 2 6 8v2h2l7 8 8 10 9 9 9 11 10 12 8 10 11 12 7 8 8 8 3 4v2l4 2 4 7 4 2 10 14 5 5 14 18 6 8 2 4-4 4-6-1-18-10-27-16-52-30-21-12-26-15-23-14-18-11-26-15-22-12-15-9-1-3 16-4 39-8 27-5z" fill="#39393A"/>
<path transform="translate(1501,741)" d="m0 0 5 1 4 3v116l-1 179-4-2-9-10-12-14-10-11-9-11-6-6v-2h-2l-9-11-3-3v-2h-2l-11-14-3-7 1-7 3-7 19-53 16-45 6-17 10-30 13-36z" fill="#39393A"/>
<path transform="translate(788,600)" d="m0 0h2l1 3v8l-6 18-3 8-12 36-10 28-4 8-4 3-23 6-25 4-30 6-19 2-3-2h-2v2l-16 5-15 1-9 4-36 7-28 4h-6l-1-7 9-7 45-26 43-24 44-26 52-30 21-12 15-9 14-7z" fill="#39393A"/>
<path transform="translate(1506,1296)" d="m0 0 3 1v7l-9 6-25 14-24 14-18 10-46 26-27 16-22 13-25 15-27 16-26 15-4 1-2-1v-7l5-12 12-36 11-29 5-16 6-13 28-6 33-6 53-10 50-10z" fill="#39393A"/>
</svg>
